<svg width="50" height="47" viewBox="0 0 50 47" fill="none" xmlns="http://www.w3.org/2000/svg">
<path fill-rule="evenodd" clip-rule="evenodd" d="M6.625 41.4062C6.18574 41.4062 5.76446 41.2318 5.45386 40.9211C5.14325 40.6105 4.96875 40.1893 4.96875 39.75V6.625C4.96875 6.18574 5.14325 5.76446 5.45386 5.45385C5.76446 5.14325 6.18574 4.96875 6.625 4.96875H37.2656C37.9245 4.96875 38.5564 4.707 39.0223 4.24109C39.4883 3.77518 39.75 3.14327 39.75 2.48438C39.75 1.82548 39.4883 1.19357 39.0223 0.727657C38.5564 0.261746 37.9245 9.81833e-09 37.2656 0H6.625C4.86794 0 3.18285 0.697989 1.94042 1.94042C0.697989 3.18285 0 4.86794 0 6.625V39.75C0 41.5071 0.697989 43.1922 1.94042 44.4346C3.18285 45.677 4.86794 46.375 6.625 46.375H39.75C41.5071 46.375 43.1922 45.677 44.4346 44.4346C45.677 43.1922 46.375 41.5071 46.375 39.75V28.9844C46.375 28.3255 46.1133 27.6936 45.6473 27.2277C45.1814 26.7617 44.5495 26.5 43.8906 26.5C43.2317 26.5 42.5998 26.7617 42.1339 27.2277C41.668 27.6936 41.4063 28.3255 41.4063 28.9844V39.75C41.4063 40.1893 41.2318 40.6105 40.9212 40.9211C40.6105 41.2318 40.1893 41.4062 39.75 41.4062H6.625ZM48.9588 12.19C49.3976 11.719 49.6365 11.0961 49.6251 10.4525C49.6138 9.8089 49.3531 9.19481 48.8979 8.73963C48.4427 8.28445 47.8286 8.02371 47.185 8.01236C46.5414 8.001 45.9185 8.23991 45.4475 8.67875L27.0366 27.0863L20.8323 20.6733C20.606 20.4368 20.3351 20.2473 20.0352 20.1158C19.7354 19.9843 19.4125 19.9134 19.0852 19.9071C18.7579 19.9008 18.4325 19.9593 18.1279 20.0792C17.8232 20.199 17.5452 20.3779 17.31 20.6056C17.0747 20.8332 16.8867 21.1051 16.7568 21.4057C16.627 21.7062 16.5578 22.0295 16.5533 22.3568C16.5488 22.6842 16.609 23.0092 16.7306 23.3132C16.8521 23.6172 17.0325 23.8942 17.2614 24.1283L25.2214 32.3565C25.4504 32.594 25.7245 32.7836 26.0275 32.914C26.3306 33.0445 26.6567 33.1133 26.9866 33.1164C27.3166 33.1195 27.6438 33.0568 27.9493 32.932C28.2548 32.8072 28.5323 32.6228 28.7658 32.3896L48.9588 12.19Z" fill="#21528B"/>
</svg>
