<svg width="49" height="49" viewBox="0 0 49 49" fill="none" xmlns="http://www.w3.org/2000/svg">
<path fill-rule="evenodd" clip-rule="evenodd" d="M10.6181 0.76472C19.8168 -0.254907 29.1 -0.254907 38.2987 0.76472C43.3919 1.33558 47.5009 5.34645 48.0985 10.4574C49.1896 19.7873 49.1896 29.2126 48.0985 38.5424C47.5009 43.6534 43.3919 47.6643 38.2987 48.2351C29.1 49.255 19.8168 49.255 10.6181 48.2351C5.52494 47.6643 1.41595 43.6534 0.818336 38.5424C-0.272779 29.2136 -0.272779 19.7893 0.818336 10.4604C1.12062 7.97736 2.25256 5.66918 4.0307 3.90992C5.80884 2.15067 8.12898 1.04344 10.6151 0.767693M24.4584 9.65465C25.0498 9.65465 25.617 9.88958 26.0352 10.3078C26.4534 10.726 26.6883 11.2931 26.6883 11.8846V22.27H37.0738C37.6652 22.27 38.2324 22.505 38.6506 22.9231C39.0688 23.3413 39.3037 23.9085 39.3037 24.4999C39.3037 25.0913 39.0688 25.6585 38.6506 26.0767C38.2324 26.4949 37.6652 26.7298 37.0738 26.7298H26.6883V37.1153C26.6883 37.7067 26.4534 38.2739 26.0352 38.6921C25.617 39.1103 25.0498 39.3452 24.4584 39.3452C23.867 39.3452 23.2998 39.1103 22.8816 38.6921C22.4634 38.2739 22.2285 37.7067 22.2285 37.1153V26.7298H11.843C11.2516 26.7298 10.6844 26.4949 10.2662 26.0767C9.84806 25.6585 9.61312 25.0913 9.61312 24.4999C9.61312 23.9085 9.84806 23.3413 10.2662 22.9231C10.6844 22.505 11.2516 22.27 11.843 22.27H22.2285V11.8846C22.2285 11.2931 22.4634 10.726 22.8816 10.3078C23.2998 9.88958 23.867 9.65465 24.4584 9.65465Z" fill="#21528B"/>
</svg>
