<svg width="88" height="88" viewBox="0 0 88 88" fill="none" xmlns="http://www.w3.org/2000/svg">
<circle cx="44" cy="44" r="44" fill="#21528B"/>
<path d="M77.6731 46.1293C77.6389 45.8214 77.5591 45.5875 77.502 45.4678C77.2739 45.502 76.9431 45.6161 76.6979 45.7016C76.4298 45.7929 76.1789 45.8727 75.9622 45.9297C74.582 46.2548 72.8369 46.1065 71.2856 45.9069L70.7895 45.8385C70.6241 45.8157 70.4359 45.7986 70.242 45.7814C70.0823 45.7643 69.9112 45.7472 69.7401 45.7301L70.7781 49.9504C70.9149 50.0132 71.1887 50.0987 71.6905 50.1843C72.7057 50.3496 74.1258 50.2698 75.0155 49.9846C76.5781 49.4828 77.8214 47.6806 77.6731 46.1293Z" fill="#1D1C1D"/>
<path d="M58.3794 61.6418C59.2349 61.8071 59.138 65.7993 59.1722 66.3925C59.2178 67.3449 58.8585 70.7268 59.9763 71.1489C60.9573 71.5196 62.6055 71.4568 63.3412 71.28C64.3848 71.0234 64.3962 70.1736 64.3962 69.2212C64.3962 68.2346 64.4476 67.2422 64.4818 66.2556C64.5217 65.2461 64.5787 62.8565 65.0122 62.8109C61.8184 61.7387 58.2996 61.6246 58.3794 61.6418Z" fill="white"/>
<path d="M73.4129 67.613C73.2304 64.693 73.2646 61.7901 73.1962 58.8587C73.0935 54.2734 72.3236 49.5968 69.877 45.9354C68.839 44.3842 67.3847 43.1523 65.7422 42.2569C63.6434 41.1106 61.1797 40.2266 58.7616 39.5707C55.3682 38.6582 51.7752 37.9853 47.9599 37.1355C46.152 36.7363 44.2243 36.012 42.3024 35.436C41.0819 35.0824 39.9013 34.4665 38.698 33.9361C37.7284 33.5254 37.0156 33.4 36.0175 33.2574C33.9302 33.0007 31.6546 32.3392 30.0235 33.4171C28.1643 34.6147 26.2766 35.9036 25.3698 37.8598C24.463 39.8046 23.5619 42.0345 23.1912 44.1675C22.9231 45.8157 23.1513 47.4297 24.0295 49.0836C25.0618 51.0169 26.8469 52.6594 28.5179 54.2734C34.9282 60.4556 34.6031 69.284 34.5575 76.3559C34.5461 77.3996 34.5119 79.0193 35.2989 79.7264C36.3882 80.6903 38.7094 80.4507 39.9755 80.1485C41.9602 79.6751 41.4412 77.4224 41.4412 76.1335C41.4412 74.8046 41.3385 68.6567 41.3385 68.0236C41.3385 67.2252 41.3328 66.1701 41.886 65.5257C42.3993 64.9268 43.9106 65.4629 44.9885 66.6549C45.6729 67.4134 46.0094 68.1035 46.2489 69.0559C47.1671 72.7059 47.0645 75.9339 46.9504 79.6808C46.9333 80.2226 46.8477 81.6712 47.9484 82.1503C49.494 82.8289 53.6059 82.8518 54.0964 80.7245C54.3245 79.755 54.1249 78.7398 54.1021 77.7589C54.0337 75.2438 54.0337 72.723 54.2219 70.2136C54.3759 68.1035 54.45 65.4743 55.3625 63.5296C55.8416 62.5144 56.9822 61.9384 58.1399 61.9213C59.6341 61.9384 61.8242 62.0525 65.0179 63.1189C66.1243 63.5182 66.7688 64.6987 67.071 65.7652C67.3391 66.6948 67.3961 67.6586 67.3904 68.6225C67.3904 69.5407 67.1794 72.0044 68.5709 72.301C69.3751 72.4721 70.202 72.415 71.0404 72.3409C73.4699 72.1242 73.527 69.5064 73.4129 67.613Z" fill="white"/>
<path d="M33.1032 61.6419C37.3121 60.5925 39.6447 59.9708 42.5932 58.1116C46.4314 55.6935 48.4389 53.1955 49.6936 51.0568C50.1099 50.344 51.53 47.8745 50.2981 47.4981C49.5852 47.3954 46.8363 48.9638 45.787 49.4543C40.7796 51.7926 30.7649 56.9311 30.8562 57.0622C31.8542 58.431 32.5272 60.0108 33.1032 61.6419Z" fill="#1D1C1D"/>
<path d="M24.8223 24.1893C24.8165 23.984 24.8165 23.7844 24.7994 23.5848C24.7424 22.6666 24.6226 21.6343 24.3204 20.7389C23.9497 19.6382 23.4535 18.4235 22.9003 17.4026C22.1817 16.0681 21.3148 14.6651 20.1457 13.6671C19.353 12.9941 17.3226 11.2717 19.3473 10.6843C22.3813 9.80034 25.8659 11.4885 28.0274 13.5473C30.3144 15.7259 32.1165 19.3246 32.3789 22.467C32.5329 24.292 30.7364 24.4346 29.3962 24.7882C28.8373 24.9364 25.2899 26.02 24.999 25.3014C24.8451 24.9364 24.8223 24.5657 24.8223 24.1893Z" fill="black"/>
<path d="M34.1069 20.5564C34.1069 20.5564 29.2821 21.0469 24.6398 24.9193C19.9974 28.7918 11.2146 33.1718 9.69756 40.4775C7.96952 48.7983 12.0187 58.5792 23.0885 58.7674C34.1583 58.9556 45.5588 55.7789 50.0928 47.8744C54.6268 39.9699 52.4824 30.765 49.5681 27.1264C46.6481 23.4879 41.0533 19.5584 34.1069 20.5564Z" fill="white"/>
<path d="M15.9767 56.9025C16.49 59.4746 16.7637 61.7102 16.0337 64.5446C15.9026 65.0465 15.9653 66.2442 17.6876 66.0788C19.7123 65.8849 22.7919 65.1549 25.2386 63.1018C27.2632 61.4022 29.3562 58.0317 27.6795 55.682C26.4591 53.9768 20.448 53.0871 17.4538 54.3646C16.5527 54.7467 15.76 55.8246 15.9767 56.9025Z" fill="#1D1C1D"/>
<path d="M44.287 22.9689C44.133 21.8682 46.2603 23.3225 47.5093 24.0354C50.5548 25.7692 52.7904 26.7729 56.1552 27.7482C56.851 27.9478 57.5696 28.1474 58.1627 28.558C58.7616 28.9686 59.2235 29.653 59.1722 30.3773C59.098 31.3868 58.1171 32.0426 57.2331 32.5388C55.8187 33.3315 54.3644 34.1186 52.7733 34.4208C51.1821 34.7231 49.4027 34.4664 48.1994 33.3829C47.4922 32.7441 47.0359 31.8772 46.6424 31.0104C45.476 28.4566 44.6828 25.7484 44.287 22.9689ZM29.8638 22.2561C30.2459 21.2124 27.8221 22.9689 26.4476 23.3967C23.1056 24.4518 20.7103 24.9593 17.2143 25.1989C16.49 25.2502 15.7486 25.2901 15.0813 25.5696C14.4141 25.849 13.8095 26.4193 13.7126 27.1379C13.5757 28.1417 14.3912 28.9914 15.1498 29.6587C16.3645 30.7309 17.6192 31.8088 19.1134 32.4361C20.6076 33.0635 22.3984 33.1947 23.8071 32.3848C24.6341 31.9114 25.2614 31.1586 25.8317 30.3944C27.5027 28.1588 28.8943 24.8852 29.8638 22.2561Z" fill="white"/>
<path d="M21.5487 50.4579C21.7312 50.4693 21.9023 50.4579 22.062 50.3952C22.5866 50.2127 22.849 49.5226 22.5581 49.0493C22.2844 48.5873 21.6513 48.3535 21.2065 48.1311C20.6533 47.8573 19.8377 47.5664 19.4214 47.1102C19.0792 46.7281 19.1306 46.2034 19.0792 45.73C18.988 44.9658 18.9595 44.1845 18.891 43.4146C18.8226 42.6332 18.3891 42.6789 17.7333 42.6789C17.4652 42.6789 17.1231 42.6161 16.9919 42.8842C16.9006 43.0439 16.9919 43.5343 16.9919 43.7339C16.9919 44.7776 17.3113 46.1064 16.8151 47.0817C16.3303 48.0341 14.1118 48.5189 14.8418 49.9047C15.395 50.9541 16.4159 50.361 17.1002 49.8078C17.4082 49.5568 17.7675 49.0721 18.2009 49.0607C18.5774 49.055 18.8226 49.3572 19.0963 49.5625C19.4385 49.8249 19.8263 49.9561 20.2313 50.0929C20.6191 50.2241 21.0981 50.4237 21.5487 50.4579Z" fill="#1D1C1D"/>
<path d="M14.2829 42.9527C14.3057 43.7055 14.7962 44.5096 15.5604 45.0286C16.182 45.4449 17.0774 45.6845 17.95 45.713C18.8283 45.7529 19.7294 45.5818 20.3852 45.2168C21.1894 44.7606 21.7312 44.002 21.8224 43.2435C21.9137 42.5249 21.7711 41.7892 21.0069 41.2588C20.5905 40.9566 20.0601 40.7513 19.5069 40.6258C19.3073 40.5745 18.7598 40.4604 18.1895 40.4433C17.6135 40.4205 17.0147 40.4889 16.798 40.5174C16.2448 40.5973 15.6973 40.7627 15.2524 41.0307C14.454 41.5041 14.2544 42.2227 14.2829 42.9527Z" fill="#1D1C1D"/>
<path d="M33.0747 35.0367C33.1032 36.8446 34.4206 38.2875 36.0232 38.2647C37.6258 38.2419 38.9033 36.7591 38.8748 34.9512C38.8462 33.1433 37.5231 31.7004 35.9262 31.7289C34.3237 31.7517 33.0462 33.2289 33.0747 35.0367Z" fill="#1D1C1D"/>
<path d="M47.0302 24.7482C47.0473 24.5429 47.0587 24.3433 47.0815 24.1437C47.1785 23.2312 47.3496 22.2046 47.6918 21.3263C48.1081 20.2427 48.667 19.0565 49.2601 18.0584C50.0415 16.7581 50.9654 15.3951 52.1801 14.4541C53.0014 13.821 55.1115 12.1956 53.1154 11.5113C50.127 10.4904 46.5683 12.0188 44.3155 13.975C41.9316 16.0452 39.964 19.5584 39.5591 22.6837C39.3253 24.4973 41.1104 24.7254 42.4335 25.1417C42.981 25.3128 46.477 26.5618 46.8021 25.8603C46.9732 25.4953 47.0074 25.1246 47.0302 24.7482Z" fill="#1D1C1D"/>
</svg>
