<svg width="65" height="64" viewBox="0 0 65 64" fill="none" xmlns="http://www.w3.org/2000/svg">
<g clip-path="url(#clip0_94_227)">
<path d="M57.8334 10.6666H52.0556V14.2222H57.3889V53.3333H7.61113V14.2222H12.9445V10.6666H7.16668C6.7511 10.6736 6.34097 10.7623 5.95969 10.9278C5.57842 11.0933 5.23347 11.3322 4.94457 11.6311C4.65567 11.9299 4.42846 12.2827 4.27592 12.6693C4.12338 13.0559 4.04851 13.4688 4.05557 13.8844V53.6711C4.04851 54.0866 4.12338 54.4995 4.27592 54.8862C4.42846 55.2728 4.65567 55.6256 4.94457 55.9244C5.23347 56.2232 5.57842 56.4622 5.95969 56.6277C6.34097 56.7932 6.7511 56.8819 7.16668 56.8888H57.8334C58.2489 56.8819 58.6591 56.7932 59.0403 56.6277C59.4216 56.4622 59.7666 56.2232 60.0555 55.9244C60.3444 55.6256 60.5716 55.2728 60.7241 54.8862C60.8766 54.4995 60.9515 54.0866 60.9445 53.6711V13.8844C60.9515 13.4688 60.8766 13.0559 60.7241 12.6693C60.5716 12.2827 60.3444 11.9299 60.0555 11.6311C59.7666 11.3322 59.4216 11.0933 59.0403 10.9278C58.6591 10.7623 58.2489 10.6736 57.8334 10.6666Z" fill="black"/>
<path d="M14.7222 24.8889H18.2778V28.4445H14.7222V24.8889Z" fill="black"/>
<path d="M25.3889 24.8889H28.9445V28.4445H25.3889V24.8889Z" fill="black"/>
<path d="M36.0555 24.8889H39.6111V28.4445H36.0555V24.8889Z" fill="black"/>
<path d="M46.7222 24.8889H50.2778V28.4445H46.7222V24.8889Z" fill="black"/>
<path d="M14.7222 33.7778H18.2778V37.3334H14.7222V33.7778Z" fill="black"/>
<path d="M25.3889 33.7778H28.9445V37.3334H25.3889V33.7778Z" fill="black"/>
<path d="M36.0555 33.7778H39.6111V37.3334H36.0555V33.7778Z" fill="black"/>
<path d="M46.7222 33.7778H50.2778V37.3334H46.7222V33.7778Z" fill="black"/>
<path d="M14.7222 42.6667H18.2778V46.2223H14.7222V42.6667Z" fill="black"/>
<path d="M25.3889 42.6667H28.9445V46.2223H25.3889V42.6667Z" fill="black"/>
<path d="M36.0555 42.6667H39.6111V46.2223H36.0555V42.6667Z" fill="black"/>
<path d="M46.7222 42.6667H50.2778V46.2223H46.7222V42.6667Z" fill="black"/>
<path d="M18.2778 17.7778C18.7493 17.7778 19.2015 17.5905 19.5349 17.2571C19.8683 16.9237 20.0556 16.4715 20.0556 16V5.33332C20.0556 4.86182 19.8683 4.40964 19.5349 4.07624C19.2015 3.74284 18.7493 3.55554 18.2778 3.55554C17.8063 3.55554 17.3541 3.74284 17.0207 4.07624C16.6873 4.40964 16.5 4.86182 16.5 5.33332V16C16.5 16.4715 16.6873 16.9237 17.0207 17.2571C17.3541 17.5905 17.8063 17.7778 18.2778 17.7778Z" fill="black"/>
<path d="M46.7222 17.7778C47.1937 17.7778 47.6459 17.5905 47.9793 17.2571C48.3127 16.9237 48.5 16.4715 48.5 16V5.33332C48.5 4.86182 48.3127 4.40964 47.9793 4.07624C47.6459 3.74284 47.1937 3.55554 46.7222 3.55554C46.2507 3.55554 45.7986 3.74284 45.4652 4.07624C45.1318 4.40964 44.9445 4.86182 44.9445 5.33332V16C44.9445 16.4715 45.1318 16.9237 45.4652 17.2571C45.7986 17.5905 46.2507 17.7778 46.7222 17.7778Z" fill="black"/>
<path d="M23.6111 10.6666H41.3889V14.2222H23.6111V10.6666Z" fill="black"/>
</g>
<defs>
<clipPath id="clip0_94_227">
<rect width="64" height="64" fill="white" transform="translate(0.5)"/>
</clipPath>
</defs>
</svg>
