<svg width="48" height="57" viewBox="0 0 48 57" fill="none" xmlns="http://www.w3.org/2000/svg">
<path d="M45.5974 23.886V54.2842H2.17131V23.886H45.5974Z" fill="#E2EFFF"/>
<path d="M47.7687 26.0574V52.113C47.7687 53.2647 47.3112 54.3693 46.4968 55.1837C45.6824 55.9981 44.5778 56.4556 43.4261 56.4556H4.34261C3.19088 56.4556 2.08632 55.9981 1.27192 55.1837C0.457523 54.3693 0 53.2647 0 52.113V26.0574C0 24.9056 0.457523 23.8011 1.27192 22.9867C2.08632 22.1723 3.19088 21.7148 4.34261 21.7148H10.8565C11.4324 21.7148 11.9847 21.9435 12.3919 22.3507C12.7991 22.7579 13.0278 23.3102 13.0278 23.8861C13.0278 24.4619 12.7991 25.0142 12.3919 25.4214C11.9847 25.8286 11.4324 26.0574 10.8565 26.0574H4.34261V52.113H43.4261V26.0574H36.9122C36.3363 26.0574 35.784 25.8286 35.3768 25.4214C34.9696 25.0142 34.7409 24.4619 34.7409 23.8861C34.7409 23.3102 34.9696 22.7579 35.3768 22.3507C35.784 21.9435 36.3363 21.7148 36.9122 21.7148H43.4261C44.5778 21.7148 45.6824 22.1723 46.4968 22.9867C47.3112 23.8011 47.7687 24.9056 47.7687 26.0574ZM14.564 14.5657L21.713 7.414V32.5713C21.713 33.1471 21.9418 33.6994 22.349 34.1066C22.7562 34.5138 23.3085 34.7426 23.8843 34.7426C24.4602 34.7426 25.0125 34.5138 25.4197 34.1066C25.8269 33.6994 26.0557 33.1471 26.0557 32.5713V7.414L33.2047 14.5657C33.6121 14.9732 34.1647 15.202 34.7409 15.202C35.3171 15.202 35.8696 14.9732 36.2771 14.5657C36.6845 14.1583 36.9134 13.6057 36.9134 13.0295C36.9134 12.4533 36.6845 11.9008 36.2771 11.4933L25.4205 0.636815C25.2189 0.434934 24.9794 0.274781 24.7158 0.165512C24.4522 0.0562423 24.1697 0 23.8843 0C23.599 0 23.3165 0.0562423 23.0529 0.165512C22.7893 0.274781 22.5498 0.434934 22.3482 0.636815L11.4916 11.4933C11.0842 11.9008 10.8553 12.4533 10.8553 13.0295C10.8553 13.6057 11.0842 14.1583 11.4916 14.5657C11.8991 14.9732 12.4516 15.202 13.0278 15.202C13.604 15.202 14.1566 14.9732 14.564 14.5657Z" fill="#21528B"/>
</svg>
