<svg width="51" height="52" viewBox="0 0 51 52" fill="none" xmlns="http://www.w3.org/2000/svg">
<path fill-rule="evenodd" clip-rule="evenodd" d="M36.2527 2.71573L36.4067 2.75773C38.9734 3.44607 41.0057 3.98973 42.604 4.5684C44.2397 5.15873 45.5744 5.83307 46.6734 6.86207C48.2729 8.36129 49.3918 10.3012 49.8887 12.4364C50.2317 13.9017 50.15 15.3951 49.842 17.1054C49.5457 18.7807 49.002 20.8131 48.3137 23.3774L47.063 28.0417C46.377 30.6061 45.831 32.6384 45.2547 34.2391C44.662 35.8724 43.9877 37.2071 42.9587 38.3061C41.5084 39.8546 39.6442 40.9544 37.5874 41.4747C36.9847 42.8563 36.1066 44.1004 35.0067 45.1311C33.9077 46.1601 32.573 46.8344 30.9374 47.4271C29.339 48.0057 27.3067 48.5494 24.7424 49.2377L24.586 49.2797C22.0194 49.9657 19.9894 50.5094 18.314 50.8104C16.6037 51.1161 15.1104 51.1977 13.6427 50.8571C11.5078 50.3585 9.56868 49.2379 8.0707 47.6371C7.04403 46.5404 6.36737 45.2057 5.7747 43.5701C5.19837 41.9717 4.6547 39.9394 3.96637 37.3727L2.7157 32.7107C2.0297 30.1441 1.4837 28.1141 1.18504 26.4387C0.879368 24.7284 0.797702 23.2351 1.13837 21.7674C1.63698 19.6325 2.75756 17.6934 4.35837 16.1954C5.45503 15.1687 6.7897 14.4921 8.42537 13.8994C10.0237 13.3231 12.056 12.7794 14.6204 12.0911L14.6997 12.0677L16.452 11.6011C17.3667 8.33673 18.1694 6.02907 19.7374 4.35607C21.2357 2.75612 23.1747 1.63637 25.3094 1.1384C26.777 0.797732 28.268 0.879399 29.9807 1.18507C31.6537 1.48373 33.686 2.02973 36.2527 2.71573ZM15.395 15.5071C12.8447 16.1907 11.0177 16.6854 9.61304 17.1917C8.1897 17.7051 7.3567 18.1811 6.75003 18.7504C5.65489 19.7755 4.88834 21.1023 4.54737 22.5631C4.3607 23.3751 4.36304 24.3364 4.63137 25.8227C4.8997 27.3324 5.40604 29.2224 6.1177 31.8824L7.32637 36.3904C8.03803 39.0504 8.5467 40.9404 9.06703 42.3801C9.58037 43.8034 10.0564 44.6387 10.6257 45.2454C11.6508 46.3405 12.9776 47.1071 14.4384 47.4481C15.248 47.6347 16.2117 47.6301 17.698 47.3641C19.2077 47.0957 21.0977 46.5894 23.7577 45.8777C26.4177 45.1637 28.3077 44.6574 29.7497 44.1347C31.1707 43.6214 32.006 43.1454 32.6127 42.5784C32.9347 42.2751 33.2264 41.9484 33.49 41.6007C33.0572 41.5389 32.6261 41.465 32.1974 41.3791C30.6294 41.0664 28.744 40.5624 26.4224 39.9394L26.287 39.9044C23.7227 39.2161 21.6904 38.6724 20.092 38.0937C18.4564 37.5034 17.1217 36.8291 16.0227 35.8001C14.4224 34.3011 13.3026 32.3612 12.805 30.2257C12.4644 28.7604 12.546 27.2671 12.8517 25.5567C13.1504 23.8814 13.6964 21.8491 14.3824 19.2847L15.395 15.5071ZM29.3647 4.6314C27.876 4.36307 26.9147 4.3584 26.105 4.5474C24.6443 4.88838 23.3174 5.65492 22.2924 6.75007C21.275 7.83507 20.6474 9.51507 19.56 13.5004C19.3827 14.1491 19.196 14.8467 18.993 15.6051L17.7844 20.1131C17.0727 22.7731 16.5664 24.6631 16.298 26.1727C16.0297 27.6591 16.025 28.6227 16.214 29.4324C16.555 30.8932 17.3216 32.22 18.4167 33.2451C19.0234 33.8144 19.8587 34.2881 21.2797 34.8037C22.7217 35.3241 24.6117 35.8304 27.2717 36.5444C29.6634 37.1861 31.4367 37.6597 32.8787 37.9444C34.3137 38.2314 35.289 38.3014 36.087 38.2034C36.262 38.1801 36.4277 38.1521 36.591 38.1147C38.0518 37.7738 39.3786 37.0072 40.4037 35.9121C40.973 35.3054 41.449 34.4701 41.9624 33.0491C42.4827 31.6071 42.989 29.7171 43.703 27.0571L44.9117 22.5491C45.6234 19.8891 46.1297 17.9991 46.398 16.4894C46.664 15.0031 46.671 14.0394 46.482 13.2297C46.1411 11.769 45.3745 10.4421 44.2794 9.41707C43.6727 8.84773 42.8374 8.37407 41.4164 7.8584C39.972 7.33807 38.0844 6.83173 35.4244 6.11773C32.7644 5.40607 30.8744 4.89973 29.3647 4.6314ZM23.788 20.8807C23.8476 20.6587 23.9503 20.4506 24.0903 20.2683C24.2303 20.086 24.4049 19.933 24.604 19.8182C24.8031 19.7033 25.0229 19.6288 25.2509 19.599C25.4788 19.5691 25.7104 19.5844 25.9324 19.6441L37.2024 22.6634C37.6382 22.7945 38.0059 23.0902 38.2274 23.4878C38.4488 23.8855 38.5066 24.3537 38.3885 24.7933C38.2705 25.2329 37.9858 25.6091 37.5948 25.8423C37.2039 26.0754 36.7376 26.1471 36.2947 26.0421L25.0247 23.0227C24.5768 22.9024 24.195 22.6093 23.9631 22.2076C23.7313 21.806 23.6683 21.3288 23.788 20.8807ZM21.975 27.6427C22.0346 27.4205 22.1374 27.2121 22.2775 27.0296C22.4177 26.8471 22.5925 26.694 22.7919 26.5792C22.9913 26.4643 23.2114 26.3899 23.4395 26.3602C23.6677 26.3305 23.8995 26.3461 24.1217 26.4061L30.8814 28.2167C31.3297 28.3368 31.712 28.63 31.9441 29.032C32.1763 29.4339 32.2393 29.9115 32.1192 30.3599C31.9991 30.8082 31.7059 31.1905 31.304 31.4227C30.9021 31.6548 30.4244 31.7178 29.976 31.5977L23.214 29.7847C22.7662 29.6644 22.3843 29.3713 22.1525 28.9696C21.9206 28.568 21.8576 28.0908 21.9774 27.6427" fill="black"/>
</svg>
