<svg width="56" height="56" viewBox="0 0 56 56" fill="none" xmlns="http://www.w3.org/2000/svg">
<path fill-rule="evenodd" clip-rule="evenodd" d="M38.2527 4.71573L38.4067 4.75773C40.9734 5.44607 43.0057 5.98973 44.604 6.5684C46.2397 7.15873 47.5744 7.83307 48.6734 8.86207C50.2729 10.3613 51.3918 12.3012 51.8887 14.4364C52.2317 15.9017 52.15 17.3951 51.842 19.1054C51.5457 20.7807 51.002 22.8131 50.3137 25.3774L49.063 30.0417C48.377 32.6061 47.831 34.6384 47.2547 36.2391C46.662 37.8724 45.9877 39.2071 44.9587 40.3061C43.5084 41.8546 41.6442 42.9544 39.5874 43.4747C38.9847 44.8563 38.1066 46.1004 37.0067 47.1311C35.9077 48.1601 34.573 48.8344 32.9374 49.4271C31.339 50.0057 29.3067 50.5494 26.7424 51.2377L26.586 51.2797C24.0194 51.9657 21.9894 52.5094 20.314 52.8104C18.6037 53.1161 17.1104 53.1977 15.6427 52.8571C13.5078 52.3585 11.5687 51.2379 10.0707 49.6371C9.04403 48.5404 8.36737 47.2057 7.7747 45.5701C7.19837 43.9717 6.6547 41.9394 5.96637 39.3727L4.7157 34.7107C4.0297 32.1441 3.4837 30.1141 3.18504 28.4387C2.87937 26.7284 2.7977 25.2351 3.13837 23.7674C3.63698 21.6325 4.75756 19.6934 6.35837 18.1954C7.45503 17.1687 8.7897 16.4921 10.4254 15.8994C12.0237 15.3231 14.056 14.7794 16.6204 14.0911L16.6997 14.0677L18.452 13.6011C19.3667 10.3367 20.1694 8.02907 21.7374 6.35607C23.2357 4.75612 25.1747 3.63637 27.3094 3.1384C28.777 2.79773 30.268 2.8794 31.9807 3.18507C33.6537 3.48373 35.686 4.02973 38.2527 4.71573ZM17.395 17.5071C14.8447 18.1907 13.0177 18.6854 11.613 19.1917C10.1897 19.7051 9.3567 20.1811 8.75003 20.7504C7.65489 21.7755 6.88834 23.1023 6.54737 24.5631C6.3607 25.3751 6.36304 26.3364 6.63137 27.8227C6.8997 29.3324 7.40604 31.2224 8.1177 33.8824L9.32637 38.3904C10.038 41.0504 10.5467 42.9404 11.067 44.3801C11.5804 45.8034 12.0564 46.6387 12.6257 47.2454C13.6508 48.3405 14.9776 49.1071 16.4384 49.4481C17.248 49.6347 18.2117 49.6301 19.698 49.3641C21.2077 49.0957 23.0977 48.5894 25.7577 47.8777C28.4177 47.1637 30.3077 46.6574 31.7497 46.1347C33.1707 45.6214 34.006 45.1454 34.6127 44.5784C34.9347 44.2751 35.2264 43.9484 35.49 43.6007C35.0572 43.5389 34.6261 43.465 34.1974 43.3791C32.6294 43.0664 30.744 42.5624 28.4224 41.9394L28.287 41.9044C25.7227 41.2161 23.6904 40.6724 22.092 40.0937C20.4564 39.5034 19.1217 38.8291 18.0227 37.8001C16.4224 36.3011 15.3026 34.3612 14.805 32.2257C14.4644 30.7604 14.546 29.2671 14.8517 27.5567C15.1504 25.8814 15.6964 23.8491 16.3824 21.2847L17.395 17.5071ZM31.3647 6.6314C29.876 6.36307 28.9147 6.3584 28.105 6.5474C26.6443 6.88838 25.3174 7.65492 24.2924 8.75007C23.275 9.83507 22.6474 11.5151 21.56 15.5004C21.3827 16.1491 21.196 16.8467 20.993 17.6051L19.7844 22.1131C19.0727 24.7731 18.5664 26.6631 18.298 28.1727C18.0297 29.6591 18.025 30.6227 18.214 31.4324C18.555 32.8932 19.3216 34.22 20.4167 35.2451C21.0234 35.8144 21.8587 36.2881 23.2797 36.8037C24.7217 37.3241 26.6117 37.8304 29.2717 38.5444C31.6634 39.1861 33.4367 39.6597 34.8787 39.9444C36.3137 40.2314 37.289 40.3014 38.087 40.2034C38.262 40.1801 38.4277 40.1521 38.591 40.1147C40.0518 39.7738 41.3786 39.0072 42.4037 37.9121C42.973 37.3054 43.449 36.4701 43.9624 35.0491C44.4827 33.6071 44.989 31.7171 45.703 29.0571L46.9117 24.5491C47.6234 21.8891 48.1297 19.9991 48.398 18.4894C48.664 17.0031 48.671 16.0394 48.482 15.2297C48.1411 13.769 47.3745 12.4421 46.2794 11.4171C45.6727 10.8477 44.8374 10.3741 43.4164 9.8584C41.972 9.33807 40.0844 8.83173 37.4244 8.11773C34.7644 7.40607 32.8744 6.89973 31.3647 6.6314ZM25.788 22.8807C25.8476 22.6587 25.9503 22.4506 26.0903 22.2683C26.2303 22.086 26.4049 21.933 26.604 21.8182C26.8031 21.7033 27.0229 21.6288 27.2509 21.599C27.4788 21.5691 27.7104 21.5844 27.9324 21.6441L39.2024 24.6634C39.6382 24.7945 40.0059 25.0902 40.2274 25.4878C40.4488 25.8855 40.5066 26.3537 40.3885 26.7933C40.2705 27.2329 39.9858 27.6091 39.5948 27.8423C39.2039 28.0754 38.7376 28.1471 38.2947 28.0421L27.0247 25.0227C26.5768 24.9024 26.195 24.6093 25.9631 24.2076C25.7313 23.806 25.6683 23.3288 25.788 22.8807ZM23.975 29.6427C24.0346 29.4205 24.1374 29.2121 24.2775 29.0296C24.4177 28.8471 24.5925 28.694 24.7919 28.5792C24.9913 28.4643 25.2114 28.3899 25.4395 28.3602C25.6677 28.3305 25.8995 28.3461 26.1217 28.4061L32.8814 30.2167C33.3297 30.3368 33.712 30.63 33.9441 31.032C34.1763 31.4339 34.2393 31.9115 34.1192 32.3599C33.9991 32.8082 33.7059 33.1905 33.304 33.4227C32.9021 33.6548 32.4244 33.7178 31.976 33.5977L25.214 31.7847C24.7662 31.6644 24.3843 31.3713 24.1525 30.9696C23.9206 30.568 23.8576 30.0908 23.9774 29.6427" fill="#21528B"/>
</svg>
