<svg width="31" height="31" viewBox="0 0 31 31" fill="none" xmlns="http://www.w3.org/2000/svg">
<path d="M11.1526 30.5L10.5526 25.7C10.2276 25.575 9.92158 25.425 9.63458 25.25C9.34758 25.075 9.06608 24.8875 8.79008 24.6875L4.32758 26.5625L0.202576 19.4375L4.06508 16.5125C4.04008 16.3375 4.02758 16.169 4.02758 16.007V14.9945C4.02758 14.8315 4.04008 14.6625 4.06508 14.4875L0.202576 11.5625L4.32758 4.4375L8.79008 6.3125C9.06508 6.1125 9.35258 5.925 9.65258 5.75C9.95258 5.575 10.2526 5.425 10.5526 5.3L11.1526 0.5H19.4026L20.0026 5.3C20.3276 5.425 20.6341 5.575 20.9221 5.75C21.2101 5.925 21.4911 6.1125 21.7651 6.3125L26.2276 4.4375L30.3526 11.5625L26.4901 14.4875C26.5151 14.6625 26.5276 14.8315 26.5276 14.9945V16.0055C26.5276 16.1685 26.5026 16.3375 26.4526 16.5125L30.3151 19.4375L26.1901 26.5625L21.7651 24.6875C21.4901 24.8875 21.2026 25.075 20.9026 25.25C20.6026 25.425 20.3026 25.575 20.0026 25.7L19.4026 30.5H11.1526ZM13.7776 27.5H16.7401L17.2651 23.525C18.0401 23.325 18.7591 23.0315 19.4221 22.6445C20.0851 22.2575 20.6911 21.7885 21.2401 21.2375L24.9526 22.775L26.4151 20.225L23.1901 17.7875C23.3151 17.4375 23.4026 17.069 23.4526 16.682C23.5026 16.295 23.5276 15.901 23.5276 15.5C23.5276 15.099 23.5026 14.7055 23.4526 14.3195C23.4026 13.9335 23.3151 13.5645 23.1901 13.2125L26.4151 10.775L24.9526 8.225L21.2401 9.8C20.6901 9.225 20.0841 8.744 19.4221 8.357C18.7601 7.97 18.0411 7.676 17.2651 7.475L16.7776 3.5H13.8151L13.2901 7.475C12.5151 7.675 11.7966 7.969 11.1346 8.357C10.4726 8.745 9.86608 9.2135 9.31507 9.7625L5.60258 8.225L4.14008 10.775L7.36508 13.175C7.24008 13.55 7.15258 13.925 7.10258 14.3C7.05258 14.675 7.02758 15.075 7.02758 15.5C7.02758 15.9 7.05258 16.2875 7.10258 16.6625C7.15258 17.0375 7.24008 17.4125 7.36508 17.7875L4.14008 20.225L5.60258 22.775L9.31507 21.2C9.86508 21.775 10.4716 22.2565 11.1346 22.6445C11.7976 23.0325 12.5161 23.326 13.2901 23.525L13.7776 27.5ZM15.3526 20.75C16.8026 20.75 18.0401 20.2375 19.0651 19.2125C20.0901 18.1875 20.6026 16.95 20.6026 15.5C20.6026 14.05 20.0901 12.8125 19.0651 11.7875C18.0401 10.7625 16.8026 10.25 15.3526 10.25C13.8776 10.25 12.6336 10.7625 11.6206 11.7875C10.6076 12.8125 10.1016 14.05 10.1026 15.5C10.1036 16.95 10.6101 18.1875 11.6221 19.2125C12.6341 20.2375 13.8776 20.75 15.3526 20.75Z" fill="#21528B"/>
</svg>
