<svg width="70" height="53" viewBox="0 0 70 53" fill="none" xmlns="http://www.w3.org/2000/svg">
<path d="M38.5 3.5C38.5 2.57174 38.1312 1.6815 37.4749 1.02513C36.8185 0.36875 35.9283 0 35 0C34.0717 0 33.1815 0.36875 32.5251 1.02513C31.8687 1.6815 31.5 2.57174 31.5 3.5V7C31.5 7.92826 31.8687 8.8185 32.5251 9.47487C33.1815 10.1313 34.0717 10.5 35 10.5C35.9283 10.5 36.8185 10.1313 37.4749 9.47487C38.1312 8.8185 38.5 7.92826 38.5 7V3.5ZM24.598 52.5H3.5C2.57174 52.5 1.6815 52.1313 1.02513 51.4749C0.368749 50.8185 0 49.9283 0 49C0 48.0717 0.368749 47.1815 1.02513 46.5251C1.6815 45.8687 2.57174 45.5 3.5 45.5H16.8105C14.9685 42.3075 13.9992 38.6865 14 35.0007C14.0008 31.3149 14.9716 27.6943 16.815 24.5026C18.6583 21.3109 21.3092 18.6605 24.5013 16.8179C27.6934 14.9752 31.3142 14.0051 35 14.0051C38.6858 14.0051 42.3066 14.9752 45.4987 16.8179C48.6908 18.6605 51.3417 21.3109 53.1851 24.5026C55.0284 27.6943 55.9992 31.3149 56 35.0007C56.0008 38.6865 55.0315 42.3075 53.1895 45.5H66.5C67.4283 45.5 68.3185 45.8687 68.9749 46.5251C69.6313 47.1815 70 48.0717 70 49C70 49.9283 69.6313 50.8185 68.9749 51.4749C68.3185 52.1313 67.4283 52.5 66.5 52.5H24.598ZM35 21C32.1562 20.9998 29.3798 21.8657 27.0403 23.4823C24.7007 25.099 22.909 27.3898 21.9035 30.0498C20.898 32.7099 20.7264 35.6131 21.4116 38.3731C22.0967 41.1331 23.6062 43.619 25.739 45.5H44.261C46.3938 43.619 47.9033 41.1331 48.5884 38.3731C49.2736 35.6131 49.102 32.7099 48.0965 30.0498C47.091 27.3898 45.2993 25.099 42.9597 23.4823C40.6202 21.8657 37.8438 20.9998 35 21ZM59.7485 15.2005L57.274 17.675C56.9511 18.0093 56.5649 18.2759 56.1379 18.4594C55.7109 18.6428 55.2516 18.7393 54.7869 18.7434C54.3222 18.7474 53.8613 18.6589 53.4312 18.4829C53.001 18.3069 52.6102 18.047 52.2816 17.7184C51.953 17.3898 51.6931 16.999 51.5171 16.5688C51.3411 16.1387 51.2526 15.6778 51.2566 15.2131C51.2607 14.7484 51.3572 14.2891 51.5406 13.8621C51.7241 13.4351 51.9907 13.0489 52.325 12.726L54.7995 10.2515C55.1224 9.91721 55.5086 9.65058 55.9356 9.46715C56.3626 9.28371 56.8219 9.18716 57.2866 9.18312C57.7513 9.17909 58.2122 9.26764 58.6423 9.44362C59.0725 9.61961 59.4633 9.87949 59.7919 10.2081C60.1205 10.5367 60.3804 10.9275 60.5564 11.3577C60.7324 11.7878 60.8209 12.2487 60.8169 12.7134C60.8128 13.1781 60.7163 13.6374 60.5329 14.0644C60.3494 14.4914 60.0828 14.8776 59.7485 15.2005Z" fill="#21528B"/>
<path d="M7 38.4999C7.92826 38.4999 8.8185 38.1312 9.47487 37.4748C10.1313 36.8184 10.5 35.9282 10.5 34.9999C10.5 34.0717 10.1313 33.1814 9.47487 32.525C8.8185 31.8687 7.92826 31.4999 7 31.4999H3.5C2.57174 31.4999 1.6815 31.8687 1.02513 32.525C0.368749 33.1814 0 34.0717 0 34.9999C0 35.9282 0.368749 36.8184 1.02513 37.4748C1.6815 38.1312 2.57174 38.4999 3.5 38.4999H7ZM70 34.9999C70 35.9282 69.6313 36.8184 68.9749 37.4748C68.3185 38.1312 67.4283 38.4999 66.5 38.4999H63C62.0717 38.4999 61.1815 38.1312 60.5251 37.4748C59.8687 36.8184 59.5 35.9282 59.5 34.9999C59.5 34.0717 59.8687 33.1814 60.5251 32.525C61.1815 31.8687 62.0717 31.4999 63 31.4999H66.5C67.4283 31.4999 68.3185 31.8687 68.9749 32.525C69.6313 33.1814 70 34.0717 70 34.9999ZM12.726 17.6749C13.3861 18.3125 14.2702 18.6652 15.1879 18.6573C16.1056 18.6493 16.9834 18.2812 17.6324 17.6323C18.2813 16.9834 18.6494 16.1055 18.6574 15.1878C18.6653 14.2701 18.3126 13.386 17.675 12.7259L15.2005 10.2514C14.8795 9.90954 14.493 9.63568 14.064 9.44608C13.6351 9.25649 13.1724 9.15504 12.7035 9.14776C12.2345 9.14048 11.7689 9.22751 11.3343 9.40369C10.8997 9.57987 10.5049 9.8416 10.1734 10.1733C9.84186 10.5051 9.58041 10.9001 9.40454 11.3348C9.22867 11.7696 9.14197 12.2352 9.14958 12.7042C9.1572 13.1731 9.25897 13.6357 9.44887 14.0645C9.63876 14.4933 9.9129 14.8796 10.255 15.2004L12.726 17.6749Z" fill="#21528B"/>
</svg>
